<svg height="2412" viewBox="0 0 1200 2412" width="1200" xmlns="http://www.w3.org/2000/svg" xmlns:xlink="http://www.w3.org/1999/xlink"><clipPath id="a"><path d="m0 2h140v36h-140z"/></clipPath><g transform="translate(-360 -5188)"><g fill="#fff" transform="translate(4588 4647)"><path d="m-3028.5 2952.5h-1199v-2410.99981689h1199z"/><path d="m-3029 2952v-2409.99981689h-1198v2409.99981689zm1 1h-1200v-2411.99981689h1200z" fill="#707070"/></g><g fill="#cc3d17" stroke="#707070"><path d="m360 5340h600v2249h-600z" stroke="none"/><path d="m360.5 5340.5h599v2248h-599z" fill="none"/></g><g fill="#fff" stroke="#707070"><path d="m639 5224h642v83h-642z" stroke="none"/><path d="m639.5 5224.5h641v82h-641z" fill="none"/></g><text fill="#3e3a39" font-family="HiraKakuProN-W6, Hiragino Kaku Gothic ProN" font-size="40" transform="translate(960 5281)"><tspan x="-302.72" y="0">例えば、100万円の施工をすると</tspan></text><g stroke="#707070"><path d="m1204.5 5484.625h153v179.75h-153z" fill="#595757"/><path d="m1138.5 5484.125 98-98" fill="#fff"/><path d="m0 0h89" fill="#595757" transform="translate(1236.5 5386.125)"/><path d="m1325.5 5386.125 98 98" fill="#fff"/><path d="m1423.5 5484.625h-285" fill="#fff"/></g><g clip-path="url(#a)" transform="translate(1210.5 5433.375)"><text baseline-shift="13.33200041851" fill="#3e3a39" font-family="HiraKakuProN-W6, Hiragino Kaku Gothic ProN" font-size="23.332" transform="translate(70 35)"><tspan x="-69.646" y="0">ハウスメーカ</tspan></text></g><g fill="#fff" stroke="#ef9112" stroke-width="3"><rect height="113" rx="52" stroke="none" width="840" x="535" y="5696"/><rect fill="none" height="110" rx="50.5" width="837" x="536.5" y="5697.5"/></g><text fill="#ef9112" font-family="HiraKakuProN-W6, Hiragino Kaku Gothic ProN" font-size="40" transform="translate(961 5768)"><tspan x="-60" y="0">お客様</tspan></text><g fill="#fff" stroke="#707070"><path d="m1148 7405h265v145h-265z" stroke="none"/><path d="m1148.5 7405.5h264v144h-264z" fill="none"/></g><text fill="#3e3a39" font-family="HiraKakuProN-W6, Hiragino Kaku Gothic ProN" font-size="25" transform="translate(1281 7466)"><tspan x="-92.8" y="0">70万円分の施工</tspan><tspan x="-86.625" y="43">になってしまう</tspan></text><g fill="#fff" stroke="#707070" stroke-width="10"><path d="m433 7322.442h475v206h-475z" stroke="none"/><path d="m438 7327.442h465v196h-465z" fill="none"/></g><text fill="#3e3a39" font-family="HiraKakuProN-W6, Hiragino Kaku Gothic ProN" font-size="38" transform="translate(670 7407)"><tspan x="-116.584" y="0">100万円分の</tspan><tspan x="-95" y="65">施工の実現</tspan></text><path d="m378 6385h561v195h-561z" fill="#fff"/><text fill="#3e3a39" font-family="HiraKakuProN-W6, Hiragino Kaku Gothic ProN" font-size="37" transform="translate(659 6497)"><tspan x="-239.945" y="0">中間マージンを削減できる！</tspan></text><path d="m0 0h561v138h-561z" fill="#fff4f4" transform="translate(378 6580)"/><text fill="#3e3a39" font-family="HiraKakuProN-W6, Hiragino Kaku Gothic ProN" font-size="26" transform="translate(666 6658)"><tspan x="-247" y="0">お客様のご期待に添え厳密な打ち合わせ！</tspan></text><path d="m378 6718h561v129h-561z" fill="#fff"/><text fill="#3e3a39" font-family="HiraKakuProN-W6, Hiragino Kaku Gothic ProN" font-size="37" transform="translate(670 6797)"><tspan x="-166.5" y="0">安心・安全の品質！</tspan></text><g fill="#fff" stroke="#707070"><rect height="71" rx="34" stroke="none" width="438" x="451" y="7085"/><rect fill="none" height="70" rx="33.5" width="437" x="451.5" y="7085.5"/></g><g fill="#fff" stroke="#707070"><path d="m378 5951h565v192h-565z" stroke="none"/><path d="m378.5 5951.5h564v191h-564z" fill="none"/></g><g fill="#fff" stroke="#707070"><path d="m378 5435h565v192h-565z" stroke="none"/><path d="m378.5 5435.5h564v191h-564z" fill="none"/></g><text fill="#3e3a39" font-family="HiraKakuProN-W6, Hiragino Kaku Gothic ProN" font-size="60" transform="translate(670 5554)"><tspan x="-120" y="0">池田瓦店</tspan></text><text fill="#3e3a39" font-family="HiraKakuProN-W6, Hiragino Kaku Gothic ProN" font-size="80" transform="translate(661 6077)"><tspan x="-240" y="0">完全自社施工</tspan></text><text fill="#3e3a39" font-family="HiraKakuProN-W6, Hiragino Kaku Gothic ProN" font-size="40" transform="translate(671 7135)"><tspan x="-140" y="0">実現可能です！</tspan></text><path d="m960 5838h600v338h-600z" fill="#eee"/><path d="m-4174.028 691h-1.972v-1.425l-52-37.575h52v-111h50v111h53l-53 38.3v.7h-.972l-23.528 17z" fill="#595757" transform="translate(5431 5310)"/><text fill="#3e3a39" font-family="HiraKakuProN-W6, Hiragino Kaku Gothic ProN" font-size="40" transform="translate(1092 5979)"><tspan x="-82.72" y="0">100万円</tspan></text><text fill="#3e3a39" font-family="HiraKakuProN-W6, Hiragino Kaku Gothic ProN" font-size="40" transform="translate(1092 5930)"><tspan x="-40" y="0">依頼</tspan></text><g fill="#fff" stroke="#707070"><path d="m1009 6042h346v92h-346z" stroke="none"/><path d="m1009.5 6042.5h345v91h-345z" fill="none"/></g><text fill="#3e3a39" font-family="HiraKakuProN-W6, Hiragino Kaku Gothic ProN" font-size="39" transform="translate(1182 6103)"><tspan x="-135.915" y="0">ハウスメーカー</tspan></text><text fill="#3e3a39" font-family="HiraKakuProN-W6, Hiragino Kaku Gothic ProN" font-size="25" transform="translate(1225 6163)"><tspan x="-42.8" y="0">10万円</tspan></text><text fill="#3e3a39" font-family="HiraKakuProN-W6, Hiragino Kaku Gothic ProN" font-size="20" transform="translate(1139 6161)"><tspan x="-39.7" y="0">マージン</tspan></text><text fill="#3e3a39" font-family="HiraKakuProN-W6, Hiragino Kaku Gothic ProN" font-size="40" transform="translate(1092 5979)"><tspan x="-82.72" y="0">100万円</tspan></text><text fill="#3e3a39" font-family="HiraKakuProN-W6, Hiragino Kaku Gothic ProN" font-size="40" transform="translate(1092 5930)"><tspan x="-40" y="0">依頼</tspan></text><g fill="#fff" stroke="#707070"><path d="m1009 6042h346v92h-346z" stroke="none"/><path d="m1009.5 6042.5h345v91h-345z" fill="none"/></g><text fill="#3e3a39" font-family="HiraKakuProN-W6, Hiragino Kaku Gothic ProN" font-size="39" transform="translate(1182 6103)"><tspan x="-135.915" y="0">ハウスメーカー</tspan></text><text fill="#3e3a39" font-family="HiraKakuProN-W6, Hiragino Kaku Gothic ProN" font-size="25" transform="translate(1225 6163)"><tspan x="-42.8" y="0">10万円</tspan></text><text fill="#3e3a39" font-family="HiraKakuProN-W6, Hiragino Kaku Gothic ProN" font-size="20" transform="translate(1139 6161)"><tspan x="-39.7" y="0">マージン</tspan></text><path d="m960 6228h600v338h-600z" fill="#eee"/><path d="m-4174.028 691h-1.972v-1.425l-52-37.575h52v-111h50v111h53l-53 38.3v.7h-.972l-23.528 17z" fill="#595757" transform="translate(5431 5700)"/><text fill="#3e3a39" font-family="HiraKakuProN-W6, Hiragino Kaku Gothic ProN" font-size="40" transform="translate(1092 6369)"><tspan x="-68.48" y="0">90万円</tspan></text><text fill="#3e3a39" font-family="HiraKakuProN-W6, Hiragino Kaku Gothic ProN" font-size="40" transform="translate(1092 6320)"><tspan x="-40" y="0">下請</tspan></text><g transform="translate(-12 -5523)"><g fill="#fff" stroke="#707070"><path d="m1021 11955h346v92h-346z" stroke="none"/><path d="m1021.5 11955.5h345v91h-345z" fill="none"/></g><text fill="#3e3a39" font-family="HiraKakuProN-W6, Hiragino Kaku Gothic ProN" font-size="39" transform="translate(1194 12016)"><tspan x="-78" y="0">下請業者</tspan></text></g><text fill="#3e3a39" font-family="HiraKakuProN-W6, Hiragino Kaku Gothic ProN" font-size="25" transform="translate(1225 6553)"><tspan x="-42.8" y="0">10万円</tspan></text><text fill="#3e3a39" font-family="HiraKakuProN-W6, Hiragino Kaku Gothic ProN" font-size="20" transform="translate(1139 6551)"><tspan x="-39.7" y="0">マージン</tspan></text><path d="m960 6621h600v338h-600z" fill="#eee"/><path d="m-4174.028 691h-1.972v-1.425l-52-37.575h52v-111h50v111h53l-53 38.3v.7h-.972l-23.528 17z" fill="#595757" transform="translate(5431 6093)"/><text fill="#3e3a39" font-family="HiraKakuProN-W6, Hiragino Kaku Gothic ProN" font-size="40" transform="translate(1092 6762)"><tspan x="-68.48" y="0">80万円</tspan></text><text fill="#3e3a39" font-family="HiraKakuProN-W6, Hiragino Kaku Gothic ProN" font-size="40" transform="translate(1092 6713)"><tspan x="-40" y="0">下請</tspan></text><g transform="translate(-12 -5130)"><g fill="#fff" stroke="#707070"><path d="m1021 11955h346v92h-346z" stroke="none"/><path d="m1021.5 11955.5h345v91h-345z" fill="none"/></g><text fill="#3e3a39" font-family="HiraKakuProN-W6, Hiragino Kaku Gothic ProN" font-size="39" transform="translate(1194 12016)"><tspan x="-78" y="0">下請業者</tspan></text></g><text fill="#3e3a39" font-family="HiraKakuProN-W6, Hiragino Kaku Gothic ProN" font-size="25" transform="translate(1225 6946)"><tspan x="-42.8" y="0">10万円</tspan></text><text fill="#3e3a39" font-family="HiraKakuProN-W6, Hiragino Kaku Gothic ProN" font-size="20" transform="translate(1139 6944)"><tspan x="-39.7" y="0">マージン</tspan></text><path d="m960 7014h600v338h-600z" fill="#eee"/><path d="m-4174.028 691h-1.972v-1.425l-52-37.575h52v-111h50v111h53l-53 38.3v.7h-.972l-23.528 17z" fill="#595757" transform="translate(5431 6486)"/><text fill="#3e3a39" font-family="HiraKakuProN-W6, Hiragino Kaku Gothic ProN" font-size="40" transform="translate(1092 7155)"><tspan x="-68.48" y="0">70万円</tspan></text><text fill="#3e3a39" font-family="HiraKakuProN-W6, Hiragino Kaku Gothic ProN" font-size="40" transform="translate(1092 7106)"><tspan x="-40" y="0">下請</tspan></text><g transform="translate(-12 -4737)"><g fill="#fff" stroke="#707070"><path d="m1021 11955h346v92h-346z" stroke="none"/><path d="m1021.5 11955.5h345v91h-345z" fill="none"/></g><text fill="#3e3a39" font-family="HiraKakuProN-W6, Hiragino Kaku Gothic ProN" font-size="39" transform="translate(1194 12016)"><tspan x="-78" y="0">下請業者</tspan></text></g></g></svg>